Coordinates
version=1
nRows=11
nColumns=40
inDegrees=yes

Units are S.I. units (second, meters, Newtons, ...)
Angles are in degrees.

endheader
time	pelvis_tilt	pelvis_list	pelvis_rotation	pelvis_tx	pelvis_ty	pelvis_tz	hip_flexion_r	hip_adduction_r	hip_rotation_r	knee_angle_r	knee_angle_r_beta	ankle_angle_r	subtalar_angle_r	mtp_angle_r	hip_flexion_l	hip_adduction_l	hip_rotation_l	knee_angle_l	knee_angle_l_beta	ankle_angle_l	subtalar_angle_l	mtp_angle_l	lumbar_extension	lumbar_bending	lumbar_rotation	arm_flex_r	arm_add_r	arm_rot_r	elbow_flex_r	pro_sup_r	wrist_flex_r	wrist_dev_r	arm_flex_l	arm_add_l	arm_rot_l	elbow_flex_l	pro_sup_l	wrist_flex_l	wrist_dev_l
     20.53792857	     -6.17220186	     -5.87395794	      3.94932482	      0.78605587	      0.92348479	      0.52561666	      2.89512760	      5.65775535	    -18.89626809	      8.52256608	      8.52256608	     14.09373241	      6.48741427	     -5.87358926	     31.59189044	     -8.62080714	     -3.18991551	     18.31966161	     18.31966161	      4.54988880	     -8.02575224	      8.12994144	     -9.83570093	      9.01333938	      3.41118521	     41.17522557	    -16.79542024	     -8.40996589	     90.46570049	     44.56529329	      0.00000000	      0.00000000	    -13.69812841	     -8.00083571	      4.89410645	     30.65885556	     44.95507963	      0.00000000	      0.00000000
     20.55085714	     -6.10289686	     -5.96743765	      3.74523498	      0.78742136	      0.92256308	      0.52453994	      2.31057109	      5.68912024	    -18.69926204	      8.62355227	      8.62355227	     14.47386117	      6.64862227	     -5.92713946	     31.11185522	     -8.68331779	     -3.20975415	     18.84622856	     18.84622856	      4.15340333	     -8.26565715	      8.10768419	     -9.56990752	      8.94928490	      3.55444811	     41.12343552	    -16.50281422	     -8.26366013	     90.68676130	     44.55595629	      0.00000000	      0.00000000	    -13.63107901	     -8.08134932	      4.87229371	     30.70273187	     44.96242997	      0.00000000	      0.00000000
     20.56378571	     -6.01633518	     -6.08505534	      3.61183674	      0.78876530	      0.92166538	      0.52318318	      1.77642962	      5.67458739	    -18.82833880	      8.91738560	      8.91738560	     15.34542774	      7.27850434	     -4.72590375	     30.59978497	     -8.67292670	     -2.86962474	     19.21999611	     19.21999611	      3.00997699	     -9.08606427	      6.28987629	     -9.44239006	      8.92834307	      3.74405842	     40.67101150	    -16.55475925	     -8.01206304	     92.11804119	     44.55351847	      0.00000000	      0.00000000	    -13.56654101	     -8.12093961	      4.58754318	     31.20955180	     45.05887861	      0.00000000	      0.00000000
     20.57671429	     -5.95386360	     -6.10597430	      3.45321708	      0.79004529	      0.92095393	      0.52175547	      1.27045876	      5.57577370	    -18.64103746	      9.14038306	      9.14038306	     15.66956233	      7.29387495	     -4.77175880	     30.22857223	     -8.63720669	     -2.74819363	     19.83781631	     19.83781631	      2.81788540	     -9.33415616	      6.18361713	     -9.25117079	      8.78160797	      3.74890595	     40.41247381	    -16.22748365	     -7.85110460	     92.19101601	     44.54852676	      0.00000000	      0.00000000	    -13.31502107	     -8.18581805	      4.56418759	     31.26927065	     45.06986205	      0.00000000	      0.00000000
     20.58964286	     -5.89364622	     -6.08455757	      3.32990974	      0.79120899	      0.92040032	      0.52001895	      0.83524855	      5.38550164	    -18.45751737	      9.48208025	      9.48208025	     15.95658255	      7.25143296	     -4.77230260	     29.94379983	     -8.52689719	     -2.53882330	     20.54145809	     20.54145809	      2.76278461	     -9.69859114	      5.97500501	     -9.10710870	      8.65067250	      3.69144505	     40.02478599	    -15.95486174	     -7.66875911	     92.26881952	     44.54207220	      0.00000000	      0.00000000	    -12.96545147	     -8.25433976	      4.51950582	     31.37867221	     45.08509611	      0.00000000	      0.00000000
     20.60257143	     -5.96519008	     -6.10291792	      3.22699545	      0.79203811	      0.91971579	      0.51806740	      0.81535416	      5.13758859	    -18.29083898	     10.31917384	     10.31917384	     16.43289122	      6.95281597	     -4.52302020	     29.93772501	     -8.38520270	     -2.08856857	     21.37734992	     21.37734992	      2.72665766	    -10.54199117	      5.50696737	     -8.85880425	      8.53847539	      3.66428222	     39.56251130	    -15.96136173	     -7.43579215	     92.57842218	     44.53462995	      0.00000000	      0.00000000	    -12.52901793	     -8.26703569	      4.34561187	     31.54253287	     45.12737526	      0.00000000	      0.00000000
     20.61550000	     -5.87918919	     -5.98026871	      3.12822820	      0.79302227	      0.91970773	      0.51592187	      0.38942446	      4.80024805	    -18.11320555	     10.69445184	     10.69445184	     16.59761505	      6.84764660	     -4.44123167	     29.62843544	     -8.15817834	     -1.87071828	     22.01941464	     22.01941464	      2.98365265	    -10.93418777	      5.24466354	     -8.84564019	      8.29809895	      3.56876030	     38.85635496	    -15.76724389	     -7.24865075	     92.45069569	     44.53325078	      0.00000000	      0.00000000	    -11.94515099	     -8.35235063	      4.26623431	     31.72839565	     45.15056767	      0.00000000	      0.00000000
     20.62842857	     -5.95004628	     -5.87903513	      3.04112181	      0.79371013	      0.91956074	      0.51349300	      0.49737125	      4.34519717	    -17.90003082	     11.81526059	     11.81526059	     17.52959402	      6.58825183	     -2.55670148	     29.59837419	     -7.84873780	     -1.37128281	     22.79270154	     22.79270154	      3.22499589	    -11.95364668	      4.93505207	     -8.70082211	      8.11194892	      3.82665276	     37.77426554	    -16.23654634	     -7.17832983	     92.80106584	     44.58308651	      0.00000000	      0.00000000	    -10.97891733	     -8.18291566	      3.12885540	     31.59049341	     45.37505101	      0.00000000	      0.00000000
     20.64135714	     -5.81591546	     -5.77129287	      2.99795065	      0.79456857	      0.91993199	      0.51090656	      0.12360322	      3.96651116	    -17.78644230	     12.34813111	     12.34813111	     17.53373785	      6.41288458	     -2.58953830	     29.28771116	     -7.60807190	     -1.19620254	     23.48148721	     23.48148721	      3.78894737	    -12.39080946	      4.67793808	     -8.78243113	      7.95287038	      3.67701625	     36.93414203	    -16.04496870	     -7.00445658	     92.42521310	     44.58893393	      0.00000000	      0.00000000	    -10.23647952	     -8.26702383	      3.06392131	     31.85467120	     45.39723890	      0.00000000	      0.00000000
     20.65428571	     -5.71075093	     -5.65796640	      2.96959196	      0.79538451	      0.92037432	      0.50814250	     -0.16228997	      3.55430319	    -17.65117530	     12.98484904	     12.98484904	     17.54865922	      6.20451882	     -2.64150513	     28.99813253	     -7.33713883	     -0.98663951	     24.15710635	     24.15710635	      4.41238963	    -12.84102544	      4.43631167	     -8.83622036	      7.80980257	      3.52314114	     35.95787211	    -15.93486382	     -6.83375824	     91.94367496	     44.59705912	      0.00000000	      0.00000000	     -9.39802376	     -8.30410345	      2.99336679	     32.17817875	     45.42117618	      0.00000000	      0.00000000
     20.66721429	     -5.89026713	     -5.44822082	      2.80015383	      0.79578697	      0.92044361	      0.50525613	      0.38647569	      2.84123270	    -17.32856515	     14.63661396	     14.63661396	     17.92396144	      5.55123827	     -2.35283290	     29.04014376	     -6.89865758	     -0.66282038	     24.92913671	     24.92913671	      5.61546012	    -13.67007917	      6.16821633	     -8.59660589	      7.53926943	      3.85018128	     34.81046860	    -16.55633092	     -6.78019048	     90.73454188	     44.67042385	      0.00000000	      0.00000000	     -8.40838660	     -8.24193216	      1.90207519	     32.51570601	     45.60586465	      0.00000000	      0.00000000
